Coordinates
version=1
nRows=54
nColumns=12
inDegrees=yes

Units are S.I. units (second, meters, Newtons, ...)
Angles are in degrees

endheader
time	SC_y	SC_z	SC_x	AC_y	AC_z	AC_x	GH_y	GH_z	GH_yy	EL_x	PS_y
       0.0               -56.4          18.11          46.36          34.81         -15.36         -14.14          -60.0          44.59           57.4          20.88          51.35
  0.004705              -56.39          18.11          46.37          34.81         -15.35         -14.14         -59.97          44.59           57.4          20.88          51.35
  0.009411              -56.38          18.11          46.37          34.81         -15.35         -14.14         -59.94          44.59          57.39          20.88          51.34
   0.01412              -56.38          18.11          46.37          34.81         -15.35         -14.13          -59.9          44.58          57.39          20.88          51.34
   0.01882              -56.37          18.11          46.38          34.81         -15.34         -14.13         -59.87          44.58          57.38          20.88          51.34
   0.02353              -56.36          18.11          46.38          34.81         -15.34         -14.13         -59.83          44.57          57.38          20.88          51.33
   0.02823              -56.35          18.11          46.38          34.81         -15.33         -14.12         -59.79          44.57          57.37          20.89          51.33
   0.03294              -56.34          18.12          46.38          34.81         -15.33         -14.12         -59.75          44.56          57.36          20.89          51.32
   0.03764              -56.33          18.12          46.39          34.81         -15.32         -14.12         -59.71          44.56          57.36          20.89          51.32
   0.04235              -56.32          18.12          46.39          34.81         -15.31         -14.11         -59.66          44.55          57.35          20.89          51.31
   0.04705              -56.31          18.12           46.4          34.81         -15.31         -14.11         -59.61          44.55          57.34          20.89           51.3
   0.05176               -56.3          18.12           46.4          34.81          -15.3          -14.1         -59.55          44.54          57.33           20.9           51.3
   0.05646              -56.28          18.12          46.41          34.82         -15.29          -14.1         -59.49          44.53          57.32           20.9          51.29
   0.06117              -56.27          18.12          46.41          34.82         -15.29         -14.09         -59.43          44.52          57.31           20.9          51.28
   0.06587              -56.25          18.13          46.42          34.82         -15.28         -14.08         -59.36          44.52           57.3          20.91          51.27
   0.07058              -56.23          18.13          46.42          34.82         -15.27         -14.08         -59.28          44.51          57.29          20.91          51.26
   0.07528              -56.21          18.13          46.43          34.82         -15.26         -14.07          -59.2           44.5          57.27          20.91          51.25
   0.07999              -56.19          18.13          46.44          34.82         -15.25         -14.06         -59.11          44.49          57.26          20.92          51.24
    0.0847              -56.17          18.13          46.44          34.82         -15.23         -14.05         -59.01          44.47          57.24          20.92          51.23
    0.0894              -56.15          18.14          46.45          34.83         -15.22         -14.04          -58.9          44.46          57.22          20.93          51.22
   0.09411              -56.12          18.14          46.46          34.83         -15.21         -14.03         -58.78          44.45           57.2          20.94           51.2
   0.09881              -56.09          18.14          46.47          34.83         -15.19         -14.02         -58.65          44.43          57.18          20.94          51.19
    0.1035              -56.06          18.15          46.49          34.83         -15.17         -14.01         -58.51          44.41          57.16          20.95          51.17
    0.1082              -56.02          18.15           46.5          34.83         -15.15         -13.99         -58.35          44.39          57.13          20.96          51.15
    0.1129              -55.98          18.16          46.51          34.84         -15.13         -13.97         -58.17          44.37           57.1          20.97          51.13
    0.1176              -55.94          18.16          46.53          34.84         -15.11         -13.96         -57.98          44.35          57.07          20.97           51.1
    0.1223              -55.89          18.17          46.55          34.84         -15.08         -13.94         -57.76          44.32          57.03          20.99          51.08
     0.127              -55.83          18.17          46.57          34.85         -15.05         -13.91         -57.51          44.29          56.99           21.0          51.04
    0.1317              -55.76          18.18          46.59          34.85         -15.01         -13.89         -57.23          44.26          56.95          21.01          51.01
    0.1365              -55.69          18.19          46.62          34.86         -14.97         -13.86         -56.91          44.22          56.89          21.03          50.97
    0.1412              -55.61           18.2          46.65          34.86         -14.93         -13.82         -56.54          44.18          56.83          21.05          50.93
    0.1459              -55.51          18.21          46.68          34.87         -14.87         -13.79         -56.12          44.12          56.77          21.07          50.87
    0.1506               -55.4          18.22          46.72          34.88         -14.81         -13.74         -55.64          44.07          56.69          21.09          50.82
    0.1553              -55.27          18.24          46.76          34.89         -14.74         -13.69         -55.08           44.0          56.59          21.12          50.75
      0.16              -55.12          18.26          46.82           34.9         -14.66         -13.63         -54.43          43.92          56.49          21.15          50.67
    0.1647              -54.95          18.28          46.88          34.91         -14.57         -13.56         -53.65          43.83          56.36          21.19          50.57
    0.1694              -54.74           18.3          46.96          34.93         -14.45         -13.47         -52.73          43.71          56.21          21.23          50.46
    0.1741              -54.49          18.33          47.04          34.95         -14.32         -13.37         -51.63          43.58          56.02          21.29          50.32
    0.1788              -54.18          18.36          47.15          34.97         -14.15         -13.25          -50.3          43.42          55.81          21.35          50.16
    0.1835              -53.81          18.41          47.29           35.0         -13.95          -13.1         -48.67          43.22          55.54          21.43          49.96
    0.1882              -53.35          18.46          47.45          35.03          -13.7         -12.91         -46.66          42.98          55.21          21.53          49.71
    0.1929              -52.78          18.53          47.65          35.07         -13.38         -12.68         -44.15          42.68          54.79          21.66           49.4
    0.1976              -52.06          18.61          47.91          35.13         -12.99         -12.39         -40.99          42.29          54.27          21.81          49.01
    0.2023              -51.14          18.72          48.24           35.2         -12.49         -12.02         -36.98          41.81          53.61          22.01          48.52
     0.207              -49.96          18.85          48.65          35.28         -11.85         -11.55         -31.84          41.19          52.76          22.27          47.89
    0.2117              -48.46          19.03          49.19          35.39         -11.03         -10.94         -25.25          40.39          51.68          22.59          47.08
    0.2164              -46.53          19.25          49.87          35.54         -9.983         -10.16         -16.83          39.37          50.29          23.01          46.04
    0.2211              -44.11          19.53          50.73          35.71         -8.665         -9.185         -6.241          38.09          48.54          23.53          44.74
    0.2259              -41.17          19.87          51.78          35.93         -7.058         -7.996          6.663          36.52          46.42          24.17          43.15
    0.2306              -37.75          20.27           53.0          36.18         -5.196         -6.616          21.62          34.71          43.95          24.91          41.31
    0.2353              -34.05          20.69          54.32          36.46          -3.18         -5.123          37.82          32.75          41.28          25.71          39.32
      0.24              -30.35          21.12          55.63          36.73         -1.164         -3.629          54.01          30.79          38.61          26.51          37.33
    0.2447              -26.93          21.52          56.85          36.98          0.698          -2.25          68.97          28.98          36.15          27.25          35.49
    0.2494              -23.98          21.86           57.9           37.2          2.304          -1.06          81.87          27.42          34.02          27.88           33.9
